HIERARCHY
ROOT Root
{
  OFFSET 0.0 0.0 0.0
  CHANNELS 6 Xposition Yposition Zposition Zrotation Yrotation Xrotation
  JOINT Hips
  {
    OFFSET 0.0 100.0 0.0
    CHANNELS 6 Xposition Yposition Zposition Zrotation Yrotation Xrotation
    JOINT Spine1
    {
      OFFSET 5.003913 -0.037094 -0.013727
      CHANNELS 3 Zrotation Yrotation Xrotation
      JOINT Spine2
      {
        OFFSET 7.125363 -1e-06 0.0
        CHANNELS 3 Zrotation Yrotation Xrotation
        JOINT Chest
        {
          OFFSET 7.594027 1e-06 0.0
          CHANNELS 3 Zrotation Yrotation Xrotation
          JOINT Neck1
          {
            OFFSET 26.313086 -0.460272 -0.181672
            CHANNELS 3 Zrotation Yrotation Xrotation
            JOINT Neck2
            {
              OFFSET 8.045911 0.0 0.0
              CHANNELS 3 Zrotation Yrotation Xrotation
              JOINT Head
              {
                OFFSET 6.432774 0.0 0.0
                CHANNELS 3 Zrotation Yrotation Xrotation
                JOINT HeadEnd
                {
                  OFFSET 16.169773 0.06451 0.00362
                  CHANNELS 3 Zrotation Yrotation Xrotation
                }
                JOINT Jaw
                {
                  OFFSET 0.108741 3.12938 0.002639
                  CHANNELS 3 Zrotation Yrotation Xrotation
                }
                JOINT LeftEye
                {
                  OFFSET 4.45173 8.166359 3.206392
                  CHANNELS 3 Zrotation Yrotation Xrotation
                }
                JOINT RightEye
                {
                  OFFSET 4.436895 8.135758 -3.222429
                  CHANNELS 3 Zrotation Yrotation Xrotation
                }
              }
            }
          }
          JOINT LeftShoulder
          {
            OFFSET 23.218927 5.195579 1.621656
            CHANNELS 3 Zrotation Yrotation Xrotation
            JOINT LeftArm
            {
              OFFSET 15.902118 2e-06 -2e-06
              CHANNELS 3 Zrotation Yrotation Xrotation
              JOINT LeftForeArm
              {
                OFFSET 28.739307 0.0 -1e-06
                CHANNELS 3 Zrotation Yrotation Xrotation
                JOINT LeftHand
                {
                  OFFSET 27.093981 -4e-06 0.0
                  CHANNELS 3 Zrotation Yrotation Xrotation
                  JOINT LeftHandThumb1
                  {
                    OFFSET 2.276781 3.380274 0.83384
                    CHANNELS 3 Zrotation Yrotation Xrotation
                    JOINT LeftHandThumb2
                    {
                      OFFSET 4.705309 -1e-06 -1e-06
                      CHANNELS 3 Zrotation Yrotation Xrotation
                      JOINT LeftHandThumb3
                      {
                        OFFSET 2.798515 0.0 3e-06
                        CHANNELS 3 Zrotation Yrotation Xrotation
                        JOINT LeftHandThumbEnd
                        {
                          OFFSET 3.180793 4e-06 -4e-06
                          CHANNELS 3 Zrotation Yrotation Xrotation
                        }
                      }
                    }
                  }
                  JOINT LeftHandIndex1
                  {
                    OFFSET 3.247786 2.352677 0.137192
                    CHANNELS 3 Zrotation Yrotation Xrotation
                    JOINT LeftHandIndex2
                    {
                      OFFSET 6.367095 1e-06 0.0
                      CHANNELS 3 Zrotation Yrotation Xrotation
                      JOINT LeftHandIndex3
                      {
                        OFFSET 3.662364 0.0 0.0
                        CHANNELS 3 Zrotation Yrotation Xrotation
                        JOINT LeftHandIndex4
                        {
                          OFFSET 2.329242 4e-06 -4e-06
                          CHANNELS 3 Zrotation Yrotation Xrotation
                          JOINT LeftHandIndexEnd
                          {
                            OFFSET 2.767823 1e-06 0.0
                            CHANNELS 3 Zrotation Yrotation Xrotation
                          }
                        }
                      }
                    }
                  }
                  JOINT LeftHandMiddle1
                  {
                    OFFSET 3.163612 0.945023 -0.406112
                    CHANNELS 3 Zrotation Yrotation Xrotation
                    JOINT LeftHandMiddle2
                    {
                      OFFSET 6.276789 3e-06 0.0
                      CHANNELS 3 Zrotation Yrotation Xrotation
                      JOINT LeftHandMiddle3
                      {
                        OFFSET 4.35652 -1e-06 4e-06
                        CHANNELS 3 Zrotation Yrotation Xrotation
                        JOINT LeftHandMiddle4
                        {
                          OFFSET 2.996877 0.0 8e-06
                          CHANNELS 3 Zrotation Yrotation Xrotation
                          JOINT LeftHandMiddleEnd
                          {
                            OFFSET 2.323256 3e-06 -4e-06
                            CHANNELS 3 Zrotation Yrotation Xrotation
                          }
                        }
                      }
                    }
                  }
                  JOINT LeftHandRing1
                  {
                    OFFSET 2.882606 -0.309162 0.107445
                    CHANNELS 3 Zrotation Yrotation Xrotation
                    JOINT LeftHandRing2
                    {
                      OFFSET 6.033198 0.0 4e-06
                      CHANNELS 3 Zrotation Yrotation Xrotation
                      JOINT LeftHandRing3
                      {
                        OFFSET 4.350578 3e-06 0.0
                        CHANNELS 3 Zrotation Yrotation Xrotation
                        JOINT LeftHandRing4
                        {
                          OFFSET 2.651321 2e-06 -7e-06
                          CHANNELS 3 Zrotation Yrotation Xrotation
                          JOINT LeftHandRingEnd
                          {
                            OFFSET 1.937663 1e-06 -4e-06
                            CHANNELS 3 Zrotation Yrotation Xrotation
                          }
                        }
                      }
                    }
                  }
                  JOINT LeftHandPinky1
                  {
                    OFFSET 2.865315 -1.525436 0.575687
                    CHANNELS 3 Zrotation Yrotation Xrotation
                    JOINT LeftHandPinky2
                    {
                      OFFSET 5.54936 1e-06 -8e-06
                      CHANNELS 3 Zrotation Yrotation Xrotation
                      JOINT LeftHandPinky3
                      {
                        OFFSET 3.070974 0.0 -4e-06
                        CHANNELS 3 Zrotation Yrotation Xrotation
                        JOINT LeftHandPinky4
                        {
                          OFFSET 1.549672 1e-06 0.0
                          CHANNELS 3 Zrotation Yrotation Xrotation
                          JOINT LeftHandPinkyEnd
                          {
                            OFFSET 1.952123 0.0 0.0
                            CHANNELS 3 Zrotation Yrotation Xrotation
                          }
                        }
                      }
                    }
                  }
                }
              }
            }
          }
          JOINT RightShoulder
          {
            OFFSET 23.161716 5.296122 -1.380114
            CHANNELS 3 Zrotation Yrotation Xrotation
            JOINT RightArm
            {
              OFFSET -16.027195 -2e-06 1.1e-05
              CHANNELS 3 Zrotation Yrotation Xrotation
              JOINT RightForeArm
              {
                OFFSET -28.736639 4e-06 2e-06
                CHANNELS 3 Zrotation Yrotation Xrotation
                JOINT RightHand
                {
                  OFFSET -27.133619 6e-06 0.0
                  CHANNELS 3 Zrotation Yrotation Xrotation
                  JOINT RightHandThumb1
                  {
                    OFFSET -2.274328 -3.351035 -0.83067
                    CHANNELS 3 Zrotation Yrotation Xrotation
                    JOINT RightHandThumb2
                    {
                      OFFSET -4.703594 -3e-06 2e-06
                      CHANNELS 3 Zrotation Yrotation Xrotation
                      JOINT RightHandThumb3
                      {
                        OFFSET -2.794935 -4e-06 -3e-06
                        CHANNELS 3 Zrotation Yrotation Xrotation
                        JOINT RightHandThumbEnd
                        {
                          OFFSET -3.183852 4e-06 1e-06
                          CHANNELS 3 Zrotation Yrotation Xrotation
                        }
                      }
                    }
                  }
                  JOINT RightHandIndex1
                  {
                    OFFSET -3.253496 -2.33755 -0.127667
                    CHANNELS 3 Zrotation Yrotation Xrotation
                    JOINT RightHandIndex2
                    {
                      OFFSET -6.344434 0.0 0.0
                      CHANNELS 3 Zrotation Yrotation Xrotation
                      JOINT RightHandIndex3
                      {
                        OFFSET -3.654871 0.0 -8e-06
                        CHANNELS 3 Zrotation Yrotation Xrotation
                        JOINT RightHandIndex4
                        {
                          OFFSET -2.327586 -1e-06 0.0
                          CHANNELS 3 Zrotation Yrotation Xrotation
                          JOINT RightHandIndexEnd
                          {
                            OFFSET -2.770001 3e-06 8e-06
                            CHANNELS 3 Zrotation Yrotation Xrotation
                          }
                        }
                      }
                    }
                  }
                  JOINT RightHandMiddle1
                  {
                    OFFSET -3.168223 -0.944764 0.411762
                    CHANNELS 3 Zrotation Yrotation Xrotation
                    JOINT RightHandMiddle2
                    {
                      OFFSET -6.266691 -1e-06 -4e-06
                      CHANNELS 3 Zrotation Yrotation Xrotation
                      JOINT RightHandMiddle3
                      {
                        OFFSET -4.348901 0.0 0.0
                        CHANNELS 3 Zrotation Yrotation Xrotation
                        JOINT RightHandMiddle4
                        {
                          OFFSET -3.00024 2e-06 -4e-06
                          CHANNELS 3 Zrotation Yrotation Xrotation
                          JOINT RightHandMiddleEnd
                          {
                            OFFSET -2.321477 -4e-06 -4e-06
                            CHANNELS 3 Zrotation Yrotation Xrotation
                          }
                        }
                      }
                    }
                  }
                  JOINT RightHandRing1
                  {
                    OFFSET -2.885654 0.293261 -0.119232
                    CHANNELS 3 Zrotation Yrotation Xrotation
                    JOINT RightHandRing2
                    {
                      OFFSET -6.032835 -1e-06 -4e-06
                      CHANNELS 3 Zrotation Yrotation Xrotation
                      JOINT RightHandRing3
                      {
                        OFFSET -4.33881 0.0 -4e-06
                        CHANNELS 3 Zrotation Yrotation Xrotation
                        JOINT RightHandRing4
                        {
                          OFFSET -2.654903 -4e-06 -4e-06
                          CHANNELS 3 Zrotation Yrotation Xrotation
                          JOINT RightHandRingEnd
                          {
                            OFFSET -1.935122 0.0 4e-06
                            CHANNELS 3 Zrotation Yrotation Xrotation
                          }
                        }
                      }
                    }
                  }
                  JOINT RightHandPinky1
                  {
                    OFFSET -2.866241 1.503904 -0.60527
                    CHANNELS 3 Zrotation Yrotation Xrotation
                    JOINT RightHandPinky2
                    {
                      OFFSET -5.553177 -2e-06 0.0
                      CHANNELS 3 Zrotation Yrotation Xrotation
                      JOINT RightHandPinky3
                      {
                        OFFSET -3.062664 -1e-06 -4e-06
                        CHANNELS 3 Zrotation Yrotation Xrotation
                        JOINT RightHandPinky4
                        {
                          OFFSET -1.546529 2e-06 4e-06
                          CHANNELS 3 Zrotation Yrotation Xrotation
                          JOINT RightHandPinkyEnd
                          {
                            OFFSET -1.952341 0.0 -4e-06
                            CHANNELS 3 Zrotation Yrotation Xrotation
                          }
                        }
                      }
                    }
                  }
                }
              }
            }
          }
        }
      }
    }
    JOINT LeftLeg
    {
      OFFSET -8.443107 2.567604 10.043214
      CHANNELS 3 Zrotation Yrotation Xrotation
      JOINT LeftShin
      {
        OFFSET 43.229198 1e-06 -1e-06
        CHANNELS 3 Zrotation Yrotation Xrotation
        JOINT LeftFoot
        {
          OFFSET 42.298611 1e-06 1e-06
          CHANNELS 3 Zrotation Yrotation Xrotation
          JOINT LeftToeBase
          {
            OFFSET 14.165858 1e-06 0.0
            CHANNELS 3 Zrotation Yrotation Xrotation
            JOINT LeftToeEnd
            {
              OFFSET 6.7141 -0.234461 0.0
              CHANNELS 3 Zrotation Yrotation Xrotation
            }
          }
        }
      }
    }
    JOINT RightLeg
    {
      OFFSET -8.303923 2.592729 -10.047278
      CHANNELS 3 Zrotation Yrotation Xrotation
      JOINT RightShin
      {
        OFFSET -43.369682 0.0 1e-06
        CHANNELS 3 Zrotation Yrotation Xrotation
        JOINT RightFoot
        {
          OFFSET -42.260784 4e-06 2e-06
          CHANNELS 3 Zrotation Yrotation Xrotation
          JOINT RightToeBase
          {
            OFFSET -14.222245 -2e-06 -1e-06
            CHANNELS 3 Zrotation Yrotation Xrotation
            JOINT RightToeEnd
            {
              OFFSET -6.660062 0.232574 -2e-06
              CHANNELS 3 Zrotation Yrotation Xrotation
            }
          }
        }
      }
    }
  }
}
MOTION
Frames: 4
Frame Time: 0.03333333333333333
0.0 0.0 0.0 0.0 -0.0 0.0 -5.03927 100.476944 -1.797185 91.65377 6.215292 89.513756 -2.190678 -0.943723 -0.019003 -11.345258 -0.724038 0.744328 17.762562 -1.63109 -1.34433 24.53907 -0.090619 2.410068 -2.490934 -0.631753 -1.115404 -24.545681 0.618218 -1.806597 6e-06 0.0 0.0 0.003319 0.007507 -0.045248 -0.054683 0.100068 -0.02328 -0.022897 -0.087975 -0.059191 -115.131554 -72.618202 126.368797 33.665104 -66.165329 -1.080561 22.574842 0.259646 0.044412 -0.435925 1.140319 15.096191 17.636627 -26.322733 52.411205 -19.466656 -14.395598 29.410389 -0.0 -8.774822 -2e-06 16.351362 -17.999735 5.779954 -0.609776 -1.795653 -3.889328 -4.807089 -11.046809 -2.937851 3e-06 -20.976015 1e-06 -5.019973 -25.033552 -4.03188 6e-06 1e-06 1e-06 -10.634533 -5.686971 -3.565588 10.573272 -17.922947 -3.113901 2e-06 -13.821208 3e-06 -0.50178 -31.181505 -4.027014 -11.401249 -59.52729 7.178569 -13.982714 -7.150198 -2.875044 13.772729 -8.401489 -3.218243 0.34773 -34.211544 0.771656 -0.963033 -17.73337 2.621021 0.0 -0.0 0.0 -17.346422 -20.095217 -4.201783 21.757559 -1.638373 3.866429 0.0 -6.338822 -0.0 -1.697593 -22.59174 -6.194005 -0.0 -4e-06 -2e-06 30.608547 -69.526291 164.442352 36.764332 -55.191338 5.120042 18.452129 -0.251833 -0.09282 -5.634278 0.672501 19.122866 22.182112 -20.375887 49.933311 -16.701811 -16.743528 28.476522 -3e-06 -12.6906 1e-06 16.283081 -17.321024 2.389987 -0.10592 -1.513857 -4.275883 -5.039041 -5.612871 -2.95355 3e-06 -11.020523 -1e-06 -6.111298 -15.89533 -3.840471 0.0 -0.0 1e-06 -10.283369 -5.680288 -4.34184 11.028292 -11.302405 -2.372633 -1.38427 -14.238581 -6.320117 -0.625438 -26.924187 -3.8276 -4.117578 -49.873497 -3.947966 -13.708522 -7.363475 -3.720941 18.141148 -14.052738 -3.242675 6e-06 -18.787268 -1e-06 -0.429711 -8.456044 2.555505 0.0 0.0 -1e-06 -15.923532 -20.094481 -5.473586 30.419205 -7.190823 1.735927 2e-06 -8.162922 -1e-06 -1.8619 -22.861467 -6.167942 -0.0 -0.0 -0.0 -176.530518 -0.131306 -4.587839 9.660692 -0.022804 0.020067 -73.9049 -0.371074 -1.917039 -7.168407 1.595372 2.115789 -0.999999 0.0 -0.0 0.445123 -3.879945 0.586547 14.545129 -0.006606 -0.004962 -76.733093 -0.304583 -5.100494 -7.594484 0.744452 1.633007 -1.000003 0.0 0.0 
0.0 0.0 0.0 0.0 -0.0 0.0 -4.85512 100.518585 -1.770576 91.586212 6.085913 89.463165 -2.135129 -0.945153 -0.037271 -11.327806 -0.691444 0.800632 17.670563 -1.602278 -1.346339 24.650335 -0.112113 2.403212 -2.455218 -0.623697 -1.114122 -24.547195 0.588272 -1.914763 6e-06 0.0 0.0 0.001321 0.008632 -0.004748 -0.041579 0.101084 0.018218 -0.015066 -0.086342 -0.020173 -114.687073 -72.617867 125.957703 34.018116 -66.19175 -1.567406 22.605492 0.154418 -0.007466 -0.474918 1.095443 15.265806 17.636627 -26.322733 52.411182 -19.46666 -14.395597 29.410385 -0.0 -8.774821 -4e-06 16.377264 -17.996477 5.772154 -0.609776 -1.795652 -3.889328 -4.807089 -11.046811 -2.937848 5e-06 -20.976019 2e-06 -5.019969 -25.03356 -4.031879 5e-06 1e-06 1e-06 -10.634533 -5.686969 -3.565585 10.573272 -17.922947 -3.113901 3e-06 -13.821206 3e-06 -0.501778 -31.181498 -4.027011 -11.475515 -59.580254 7.345028 -13.982712 -7.150197 -2.875041 13.772727 -8.40149 -3.218242 0.347735 -34.211552 0.771655 -0.963028 -17.733372 2.621019 -1e-06 3e-06 0.0 -17.346416 -20.095215 -4.201783 21.757557 -1.638376 3.866427 1e-06 -6.338822 -1e-06 -1.697589 -22.591742 -6.194006 -1e-06 -5e-06 -1e-06 30.588995 -69.714264 164.475555 36.61898 -55.333595 5.145955 18.465246 -0.226327 -0.093248 -5.593882 0.690045 18.813955 22.182114 -20.375895 49.933308 -16.701813 -16.74353 28.47653 -4e-06 -12.690601 -1e-06 16.321995 -17.324272 2.358744 -0.10592 -1.513856 -4.275879 -5.03904 -5.612871 -2.953557 4e-06 -11.020523 1e-06 -6.111299 -15.895332 -3.840469 -1e-06 0.0 2e-06 -10.283368 -5.680288 -4.341839 11.028294 -11.302406 -2.372637 -1.38427 -14.238581 -6.320117 -0.62544 -26.924187 -3.827599 -4.130643 -49.973724 -3.929729 -13.708524 -7.363475 -3.72094 18.141146 -14.052739 -3.242674 4e-06 -18.787271 -1e-06 -0.429713 -8.456045 2.555505 -1e-06 1e-06 0.0 -15.923536 -20.094484 -5.473581 30.41921 -7.190825 1.735928 3e-06 -8.162927 -2e-06 -1.861902 -22.861473 -6.167941 -0.0 -3e-06 -0.0 -176.854767 -0.121986 -4.611719 10.029736 -0.011729 0.066512 -73.90242 -0.444506 -1.897952 -7.17489 1.616568 2.121655 -0.999999 0.0 -0.0 0.310629 -3.924592 0.665311 14.546637 -0.006983 -0.00451 -76.506989 -0.305617 -5.114072 -7.632998 0.720207 1.633464 -1.000002 0.0 -0.0 
0.0 0.0 0.0 0.0 -0.0 0.0 -4.623796 100.531731 -1.742613 91.554573 5.938902 89.391281 -2.088889 -0.965669 -0.043766 -11.320736 -0.677915 0.846005 17.645296 -1.58546 -1.319608 24.744579 -0.097996 2.417411 -2.461948 -0.608445 -1.147103 -24.496193 0.586263 -2.002423 6e-06 -0.0 0.0 -0.001795 0.00871 0.006815 -0.055685 0.098651 0.030722 -0.029051 -0.083818 -0.010187 -114.222206 -72.60643 125.476875 34.213188 -66.240311 -1.844348 22.739073 0.086532 -0.055627 -0.559967 0.988849 15.379733 17.636633 -26.322723 52.411182 -19.46666 -14.395596 29.410381 -0.0 -8.774821 -4e-06 16.4123 -18.036106 5.775001 -0.609776 -1.795653 -3.889326 -4.80709 -11.046811 -2.937851 3e-06 -20.976019 1e-06 -5.01997 -25.033558 -4.031883 5e-06 1e-06 -1e-06 -10.634537 -5.686971 -3.565587 10.573271 -17.922951 -3.113897 2e-06 -13.821209 1e-06 -0.501781 -31.181505 -4.027013 -11.579349 -59.636536 7.431543 -13.982716 -7.150199 -2.875038 13.772729 -8.401491 -3.218242 0.347735 -34.211555 0.771651 -0.963031 -17.733372 2.621019 -0.0 1e-06 0.0 -17.346424 -20.095217 -4.201776 21.757563 -1.638374 3.866426 1e-06 -6.338823 0.0 -1.697591 -22.591745 -6.194007 -1e-06 -4e-06 -2e-06 30.498318 -69.906075 164.577133 36.543755 -55.474052 4.999856 18.483622 -0.219755 -0.102555 -5.560411 0.785433 18.690567 22.182114 -20.375895 49.933319 -16.701811 -16.743526 28.476522 -1e-06 -12.6906 -0.0 16.348934 -17.303219 2.336546 -0.105919 -1.513856 -4.275879 -5.039041 -5.612873 -2.953553 2e-06 -11.020527 -2e-06 -6.1113 -15.895338 -3.840471 -0.0 -0.0 0.0 -10.283369 -5.680291 -4.341838 11.028291 -11.302405 -2.372634 -1.384271 -14.238583 -6.320119 -0.625443 -26.924194 -3.827601 -4.117464 -49.975563 -3.954353 -13.708525 -7.363478 -3.720936 18.141146 -14.052738 -3.242672 4e-06 -18.787271 -2e-06 -0.429713 -8.456045 2.555503 -1e-06 -0.0 -1e-06 -15.923536 -20.094486 -5.473583 30.41921 -7.190823 1.735929 2e-06 -8.162929 -1e-06 -1.861905 -22.861471 -6.16794 -0.0 -5e-06 -3e-06 -177.209885 -0.042841 -4.647025 10.424558 -0.007666 0.087559 -74.007126 -0.530033 -1.811678 -7.152569 1.626024 2.127985 -0.999999 -0.0 -0.0 0.176689 -4.09018 0.715794 14.606498 -0.002493 -0.00844 -76.45993 -0.257217 -5.253528 -7.605138 0.707142 1.633688 -1.000003 -0.0 -0.0 
0.0 0.0 0.0 0.0 -0.0 0.0 -4.404182 100.539719 -1.717737 91.524857 5.762588 89.321205 -2.035156 -0.992241 -0.039548 -11.317068 -0.664745 0.890161 17.657848 -1.569141 -1.264958 24.810966 -0.08118 2.423306 -2.48027 -0.604626 -1.158208 -24.515551 0.638143 -2.097015 6e-06 -0.0 -0.0 -0.003196 0.008155 0.00755 -0.075575 0.096088 0.03193 -0.049107 -0.082408 -0.010608 -113.815155 -72.58667 125.058594 34.314713 -66.269257 -1.851094 23.006847 0.074347 -0.076423 -0.609086 0.916525 15.462125 17.636627 -26.322725 52.411179 -19.466661 -14.395596 29.410389 -0.0 -8.77482 -4e-06 16.413549 -18.033979 5.785699 -0.609777 -1.795653 -3.889328 -4.807087 -11.046809 -2.93785 4e-06 -20.976015 3e-06 -5.01997 -25.033552 -4.031878 7e-06 2e-06 -0.0 -10.634532 -5.68697 -3.565587 10.573272 -17.922947 -3.113899 4e-06 -13.821206 1e-06 -0.50178 -31.181498 -4.027012 -11.634795 -59.678825 7.465454 -13.982712 -7.150198 -2.875041 13.772727 -8.401489 -3.218239 0.347732 -34.211544 0.771656 -0.963031 -17.733368 2.621023 -0.0 -1e-06 0.0 -17.346418 -20.095215 -4.201781 21.757557 -1.638376 3.866425 1e-06 -6.338823 1e-06 -1.697589 -22.591742 -6.194003 -1e-06 -4e-06 -0.0 30.430399 -70.093277 164.648956 36.511768 -55.622463 4.900515 18.5462 -0.179037 -0.106935 -5.534742 0.878129 18.646183 22.182112 -20.375891 49.933319 -16.701811 -16.74353 28.476528 -4e-06 -12.6906 -1e-06 16.352669 -17.274832 2.33676 -0.105919 -1.513854 -4.275881 -5.03904 -5.612872 -2.953557 3e-06 -11.020523 -0.0 -6.111299 -15.89533 -3.840469 0.0 -1e-06 -1e-06 -10.283368 -5.680286 -4.341841 11.028294 -11.302404 -2.372633 -1.384268 -14.238581 -6.320121 -0.62544 -26.924187 -3.827599 -4.122455 -49.909107 -3.946534 -13.708525 -7.363476 -3.720938 18.14115 -14.052737 -3.242675 6e-06 -18.78727 -0.0 -0.429711 -8.456041 2.555503 -2e-06 0.0 0.0 -15.923532 -20.094482 -5.473588 30.41921 -7.190824 1.735927 2e-06 -8.162926 -1e-06 -1.861902 -22.861469 -6.167944 -1e-06 -2e-06 -1e-06 -177.584702 0.038392 -4.704111 10.795509 -0.006032 0.09431 -74.127701 -0.62453 -1.721127 -7.130311 1.625052 2.129672 -0.999999 -0.0 0.0 -0.0362 -4.193898 0.708854 14.634812 0.001712 -0.022618 -76.401962 -0.191276 -5.372023 -7.561821 0.69651 1.632311 -1.000002 -0.0 -0.0 
